<svg xmlns="http://www.w3.org/2000/svg" xmlns:xlink="http://www.w3.org/1999/xlink" width="1920" zoomAndPan="magnify" viewBox="0 0 1440 326.999992" height="436" preserveAspectRatio="xMidYMid meet" version="1.0"><path fill="#693723" d="M 615.195312 141.59375 C 623.738281 133.953125 631.082031 124.761719 638.625 116.121094 C 645.867188 107.777344 653.011719 99.335938 660.105469 90.894531 C 674.339844 74.007812 688.578125 57.125 703.511719 40.890625 C 712.253906 31.398438 721.246094 22.105469 730.539062 13.117188 C 731.9375 11.765625 729.789062 9.570312 728.390625 10.96875 C 695.96875 42.289062 667.847656 77.457031 638.875 111.824219 C 634.828125 116.617188 630.78125 121.363281 626.683594 126.058594 C 622.488281 130.957031 618.09375 135.699219 614.246094 140.847656 C 613.898438 141.445312 614.746094 141.996094 615.195312 141.59375 Z M 615.195312 141.59375 " fill-opacity="1" fill-rule="nonzero"/><path fill="#693723" d="M 727.742188 10.96875 C 730.1875 12.765625 733.785156 11.066406 735.082031 8.667969 C 736.582031 5.820312 734.882812 2.675781 732.136719 1.425781 C 729.339844 0.175781 725.992188 1.425781 725.191406 4.523438 C 724.492188 7.121094 725.890625 11.066406 729.089844 11.015625 C 729.9375 11.015625 730.6875 9.769531 729.890625 9.117188 C 728.789062 8.21875 727.941406 7.171875 728.191406 5.671875 C 728.441406 4.125 729.839844 3.472656 731.289062 4.023438 C 732.886719 4.625 733.835938 6.421875 732.886719 7.96875 C 731.886719 9.667969 729.9375 10.066406 728.140625 9.820312 C 727.339844 9.71875 727.292969 10.667969 727.742188 10.96875 Z M 727.742188 10.96875 " fill-opacity="1" fill-rule="nonzero"/><path fill="#693723" d="M 730.488281 12.015625 C 736.132812 20.558594 742.175781 28.800781 748.023438 37.191406 C 753.765625 45.535156 759.3125 53.976562 764.957031 62.371094 C 776.296875 79.355469 787.386719 96.488281 799.074219 113.222656 C 805.566406 122.5625 812.261719 131.65625 819.207031 140.644531 C 820.453125 142.246094 823.300781 140.097656 822.054688 138.449219 C 797.226562 106.078125 775.847656 71.261719 752.117188 38.042969 C 745.574219 28.902344 739.03125 19.609375 731.488281 11.21875 C 731.039062 10.667969 730.089844 11.417969 730.488281 12.015625 Z M 730.488281 12.015625 " fill-opacity="1" fill-rule="nonzero"/><path fill="#f696d1" d="M 827.996094 238.855469 C 827.296875 212.128906 825.25 185.453125 823.851562 158.78125 C 823.5 152.386719 823.203125 146.042969 822.851562 139.648438 C 823 139.046875 822.753906 138.398438 822.003906 138.097656 C 819.503906 136.949219 816.257812 137.300781 813.511719 137.148438 C 809.214844 136.898438 804.917969 136.699219 800.621094 136.5 C 792.378906 136.101562 784.1875 135.75 775.945312 135.5 C 759.910156 134.953125 743.875 134.652344 727.839844 134.601562 C 711.804688 134.550781 695.820312 134.75 679.785156 135.300781 C 671.59375 135.550781 663.402344 135.902344 655.207031 136.300781 C 648.566406 136.648438 641.871094 137.300781 635.226562 137.449219 C 628.683594 137.597656 622.089844 137.398438 615.546875 137.398438 C 614.597656 137.398438 613.898438 138.199219 613.847656 139.097656 C 612.597656 171.515625 610.75 204.039062 611.5 236.457031 C 611.898438 251.242188 612.699219 266.128906 613.398438 281.015625 C 613.945312 292.804688 614.398438 304.644531 615.046875 316.433594 C 615.296875 320.878906 616.445312 325.625 621.589844 326.371094 C 624.4375 326.824219 627.585938 326.371094 630.480469 326.273438 C 633.976562 326.171875 637.425781 326.074219 640.921875 325.972656 C 696.46875 324.273438 752.019531 322.527344 807.566406 320.828125 C 810.863281 320.726562 814.210938 320.628906 817.507812 320.527344 C 819.804688 320.429688 822.203125 320.277344 824.300781 319.230469 C 829.246094 316.683594 828.148438 310.886719 828.148438 306.242188 C 828.195312 296.152344 828.246094 286.109375 828.296875 276.019531 C 828.296875 263.632812 828.296875 251.242188 827.996094 238.855469 Z M 827.996094 238.855469 " fill-opacity="1" fill-rule="nonzero"/></svg>